<svg width="63" height="57" viewBox="0 0 63 57" fill="none" xmlns="http://www.w3.org/2000/svg">
<path d="M39.8954 0H23.1046C18.7687 0 15.2361 3.8062 15.2361 8.47788V10.4322H6.21881C2.78983 10.4322 0 13.438 0 17.1326V50.2903C0 53.9848 2.78983 56.9907 6.21881 56.9907H17.7582H56.7726C60.2015 56.9907 62.9914 53.9848 62.9914 50.2903V17.1419C62.9914 13.4473 60.2015 10.4415 56.7726 10.4415H47.7639V8.48718C47.7639 3.8062 44.2313 0 39.8954 0ZM25.5144 54.0686H23.7351V12.4981H25.5144V54.0686ZM36.2073 54.0686H26.7927V12.4981H36.2159V54.0686H36.2073ZM39.2649 54.0686H37.7447H37.4856V12.4981H37.7361H39.2649V54.0686ZM40.2668 10.4322H22.7332V8.47788C22.7332 8.26384 22.8973 8.08702 23.096 8.08702H39.8954C40.094 8.08702 40.2582 8.26384 40.2582 8.47788V10.4322H40.2668ZM56.7812 13.1868C58.8023 13.1868 60.452 14.9549 60.452 17.1419V50.2996C60.452 52.4772 58.8023 54.2547 56.7812 54.2547H40.5432V13.1868H41.5365C42.2447 13.1868 42.8148 12.5726 42.8148 11.8095V8.47788C42.8148 6.74694 41.5019 5.33241 39.8954 5.33241H23.1046C21.4981 5.33241 20.1852 6.74694 20.1852 8.47788V11.8095C20.1852 12.5726 20.7553 13.1868 21.4635 13.1868H22.4568V54.2454H6.21881C4.1977 54.2454 2.54798 52.4772 2.54798 50.2903V17.1419C2.54798 14.9642 4.18906 13.1868 6.21881 13.1868H16.5144C17.2226 13.1868 17.7927 12.5726 17.7927 11.8095V8.47788C17.7927 5.3231 20.1766 2.75461 23.1046 2.75461H39.904C42.8321 2.75461 45.2159 5.3231 45.2159 8.47788V11.8095C45.2159 12.5726 45.786 13.1868 46.4942 13.1868H56.7812Z" fill="#D18943"/>
</svg>
