<?xml version="1.0" encoding="utf-8"?>
<!-- Generator: Adobe Illustrator 24.3.0, SVG Export Plug-In . SVG Version: 6.00 Build 0)  -->
<svg version="1.1" id="Слой_1" xmlns="http://www.w3.org/2000/svg" xmlns:xlink="http://www.w3.org/1999/xlink" x="0px" y="0px"
	 viewBox="0 0 178.67 189.05" style="enable-background:new 0 0 178.67 189.05;" xml:space="preserve">
<style type="text/css">
	.st0{fill:#060708;}
	.st1{fill:#E51B20;}
</style>
<g>
	<path class="st0" d="M46.04,28.6c3.12-2.33,6.11-4.42,9.62-5.69c6.53-2.35,13.04-2.05,19.43,0.32c5.3,1.96,8.57,5.95,10.15,11.33
		c0.72,2.46,1.08,4.98,1.08,7.55c-0.01,18.28,0.04,36.57-0.03,54.85c-0.03,7.84-3.32,14.03-10.14,18.1
		c-1.33,0.79-1.64,1.59-1.4,3.05c1.51,9.29,2.92,18.59,4.4,27.88c0.19,1.18,0.46,2.35,0.97,3.44c1.35,2.89,3.83,4.25,7,3.8
		c0.32-0.05,0.63-0.12,0.94-0.18c2.65-0.52,2.44-0.46,3.05,2.07c1.99,8.25-5.12,15.13-13.09,15.04c-2.64-0.03-5.26-0.33-7.73-1.36
		c-4.71-1.95-6.76-5.78-7.55-10.56c-2.04-12.27-4.14-24.52-6.14-36.8c-0.21-1.27-0.55-1.81-1.9-1.73c-1.83,0.1-3.68,0.11-5.51,0
		c-1.33-0.08-1.6,0.48-1.58,1.67c0.13,9.73-0.19,19.47,0.22,29.21c0.24,5.65,0.45,11.3,0.67,17.06c-2.23,0.86-4.57,0.76-6.83,0.98
		c-2.78,0.27-5.58,0.27-8.38,0.27c-2.45,0-3.44-1.04-3.58-3.5c-0.04-0.64-0.01-1.28-0.01-1.92c0-39.52,0-79.04-0.01-118.56
		c0-1.44,0.01-2.88-0.16-4.3c-0.51-4.24-2.4-6.13-6.64-6.41c-1.32-0.09-1.54-0.52-1.52-1.67c0.1-5.24,3.07-9.12,8.15-10.46
		c2.25-0.59,4.54-0.85,6.87-0.68c4.1,0.3,7.01,2.38,8.96,5.92C45.52,27.66,45.71,28.01,46.04,28.6z M68.47,70.16
		c0-8.15,0-16.29,0-24.44c0-0.88,0.01-1.77-0.11-2.63c-0.59-4.04-2.91-6.17-6.97-6.63c-4.55-0.51-8.22,1.31-11.65,4.02
		c-1.48,1.17-2.17,2.44-2.16,4.44c0.08,19.01,0.05,38.01,0.05,57.02c0,0.48,0.05,0.96-0.01,1.44c-0.13,1.1,0.42,1.34,1.41,1.32
		c3.44-0.07,6.88,0.04,10.31-0.14c5.9-0.31,9.14-3.83,9.15-9.73C68.47,86.62,68.47,78.39,68.47,70.16z"/>
	<path class="st1" d="M156.85,52.8c0,4.71-0.08,9.43,0.03,14.14c0.07,2.87-1.2,4.73-3.74,5.78c-4.49,1.86-9.14,2.06-13.88,1.19
		c-1.06-0.19-0.89-0.86-0.84-1.61c0.2-2.7,0.47-5.41,0.5-8.12c0.07-6.79,0.03-13.58,0.02-20.37c-0.01-5.36-2.58-8.54-7.85-9.5
		c-2.37-0.44-4.8-0.39-7.1,0.42c-3.17,1.11-5.3,3.21-5.75,6.68c-0.12,0.95-0.23,1.9-0.23,2.86c-0.02,7.99-0.03,15.97,0.01,23.96
		c0.01,1.59,0.15,3.2,0.43,4.76c0.57,3.22,2.23,5.72,5.05,7.51c7.96,5.04,15.87,10.15,23.81,15.22c4.64,2.96,7.8,7.02,9.17,12.39
		c0.51,2.01,0.81,4.06,0.8,6.15c-0.02,10.62-0.11,21.25,0.02,31.87c0.14,11.1-6.13,18.48-15.44,21.81c-5.58,2-11.34,2.44-17.22,1.99
		c-5.24-0.4-10.27-1.5-14.84-4.18c-6.67-3.9-10.25-9.54-10.13-17.47c0.14-8.62,0.09-17.25,0-25.88c-0.03-2.81,0.85-4.85,4.26-6.17
		c4.29-1.66,8.72-1.8,13.21-1.05c0.85,0.14,1.21,0.5,1.11,1.45c-0.99,9.48-0.23,18.99-0.57,28.48c-0.21,5.76,3.42,8.59,7.57,9.58
		c2.67,0.64,5.4,0.55,8.04-0.36c3.86-1.32,6.13-4.39,6.16-8.51c0.05-8.47,0.08-16.93-0.01-25.4c-0.06-5.63-2.24-10.04-7.3-13.12
		c-7.36-4.48-14.4-9.49-21.73-14.03c-6.92-4.28-9.91-10.56-10.18-18.4c-0.1-2.87-0.02-5.75-0.02-8.63c0-7.91,0-15.81,0-23.72
		c0-3.15,0.53-6.2,1.71-9.11c2.29-5.66,6.48-9.57,12.05-11.67c10.69-4.02,21.44-3.87,31.88,0.98c4.46,2.07,7.87,5.43,9.78,10.1
		c0.98,2.4,1.3,4.92,1.29,7.49C156.84,44.49,156.85,48.65,156.85,52.8z"/>
</g>
</svg>
