<svg width="55" height="51" viewBox="0 0 55 51" fill="none" xmlns="http://www.w3.org/2000/svg">
<path d="M20.3042 35.3897V49.9441C20.3042 50.3686 20.6279 50.717 21.0225 50.717H39.799C40.1936 50.717 40.5173 50.3686 40.5173 49.9441C40.5173 49.5195 40.1936 49.1712 39.799 49.1712H21.7306V36.0864H41.0535H41.2558C41.4986 36.0864 41.7313 35.9449 41.8628 35.7272L53.4768 15.7082C53.6184 15.4687 53.6184 15.1748 53.497 14.9244C53.3756 14.6849 53.1328 14.5325 52.8698 14.5325H17.8357L15.2762 0.903511C15.2054 0.544279 14.912 0.28302 14.5782 0.28302H0.981345C0.586795 0.28302 0.263062 0.631366 0.263062 1.05591C0.263062 1.48046 0.586795 1.8288 0.981345 1.8288H13.9914L20.3042 35.3897ZM41.7616 16.0674H51.5748L48.7725 20.9007C48.7422 20.9007 48.7118 20.879 48.6713 20.879H41.7616V16.0674ZM41.7616 22.4247H47.8822L44.3111 28.5861H41.7616V22.4247ZM41.7616 30.121H43.4208L41.7616 32.9731V30.121ZM20.5065 28.7059L19.3229 22.4247H29.2473V28.5861H20.8707C20.7291 28.5752 20.6077 28.6297 20.5065 28.7059ZM30.6738 16.0674H40.3352V20.879H30.6738V16.0674ZM30.6738 22.4247H40.3352V28.5861H30.6738V22.4247ZM30.6738 34.3991V30.121H40.3352V34.5515H30.6434C30.6535 34.4971 30.6738 34.4536 30.6738 34.3991ZM21.5991 34.5406L20.7594 30.0884C20.7898 30.0884 20.8201 30.1101 20.8606 30.1101H29.2372V34.3883C29.2372 34.4427 29.2574 34.4862 29.2676 34.5298H21.5991V34.5406ZM29.2372 16.0674V20.879H19.0295L18.1291 16.0674H29.2372Z" fill="#D18943"/>
<path d="M39.799 51H21.0123C20.466 51 20.031 50.521 20.031 49.9441V35.4224L13.7688 2.11185H0.981317C0.445134 2.11185 0 1.64376 0 1.05592C0 0.46809 0.445134 0 0.981317 0H14.5781C15.0435 0 15.4482 0.359232 15.5392 0.849093L18.0583 14.2386H52.8697C53.2238 14.2386 53.5577 14.4455 53.7296 14.7829C53.9016 15.1204 53.8915 15.534 53.6993 15.8606L42.0854 35.8796C41.9033 36.1953 41.5896 36.3804 41.2457 36.3804H22.0038V48.8882H39.799C40.3453 48.8882 40.7803 49.3671 40.7803 49.9441C40.7803 50.521 40.3352 51 39.799 51ZM0.981317 0.576948C0.738517 0.576948 0.536184 0.794664 0.536184 1.05592C0.536184 1.31718 0.738517 1.5349 0.981317 1.5349H13.9914C14.1229 1.5349 14.224 1.63287 14.2544 1.7635L20.5672 35.3244C20.5672 35.3462 20.5773 35.3571 20.5773 35.3789V49.9332C20.5773 50.1945 20.7796 50.4122 21.0224 50.4122H39.799C40.0418 50.4122 40.2441 50.1945 40.2441 49.9332C40.2441 49.6719 40.0418 49.4542 39.799 49.4542H21.7306C21.5789 49.4542 21.4575 49.3236 21.4575 49.1603V36.0864C21.4575 35.9232 21.5789 35.7925 21.7306 35.7925H41.2457C41.3974 35.7925 41.5391 35.7054 41.6301 35.5639L53.244 15.5449C53.325 15.3925 53.3351 15.2075 53.2542 15.0551C53.1732 14.9027 53.0215 14.8047 52.8596 14.8047H17.8357C17.7042 14.8047 17.603 14.7067 17.5727 14.5761L15.0131 0.957951C14.9727 0.729349 14.7906 0.576948 14.5781 0.576948H0.981317ZM40.3352 34.8346H30.6434C30.5625 34.8346 30.4916 34.791 30.4309 34.7257C30.3804 34.6604 30.3601 34.5733 30.3804 34.4862L30.6434 34.4318L30.4006 34.3883V34.3991V30.121C30.4006 29.9577 30.522 29.8271 30.6737 29.8271H40.3352C40.4869 29.8271 40.6083 29.9577 40.6083 30.121V34.5515C40.5982 34.7039 40.4768 34.8346 40.3352 34.8346ZM30.9368 34.2576H40.062V30.4041H30.9368V34.2576ZM29.2675 34.8346H21.5991C21.4676 34.8346 21.3664 34.7366 21.3361 34.606L20.4964 30.1537C20.4761 30.0666 20.5065 29.9686 20.5672 29.9033C20.6279 29.838 20.7088 29.7945 20.7999 29.8162C20.81 29.8162 20.8606 29.8271 20.8707 29.838H29.2372C29.3889 29.838 29.5002 29.9686 29.5002 30.1319V34.41C29.5002 34.4209 29.5204 34.4971 29.5204 34.4971C29.5306 34.5842 29.5103 34.6713 29.4597 34.7366C29.4193 34.791 29.3485 34.8346 29.2675 34.8346ZM21.8217 34.2576H28.9741V30.4041H21.0933L21.8217 34.2576ZM41.7616 33.267C41.7414 33.267 41.711 33.267 41.6908 33.2561C41.5795 33.2235 41.4986 33.1037 41.4986 32.984V30.1319C41.4986 29.9686 41.62 29.838 41.7717 29.838H43.4309C43.532 29.838 43.6231 29.8924 43.6636 29.9904C43.704 30.0884 43.704 30.1972 43.6534 30.2843L41.9943 33.1364C41.9437 33.2126 41.8527 33.267 41.7616 33.267ZM42.0348 30.4041V31.9607L42.9352 30.4041H42.0348ZM20.5065 28.9889C20.466 28.9889 20.4357 28.978 20.3952 28.9671C20.3143 28.9345 20.2536 28.8474 20.2435 28.7603L19.0598 22.4792C19.0396 22.3921 19.0598 22.305 19.1104 22.2397C19.161 22.1744 19.2419 22.1308 19.3228 22.1308H29.2473C29.399 22.1308 29.5103 22.2615 29.5103 22.4248V28.5861C29.5103 28.7494 29.3889 28.8692 29.2473 28.8692H20.8707C20.7999 28.8692 20.7291 28.8909 20.6481 28.9454C20.5975 28.978 20.547 28.9889 20.5065 28.9889ZM19.6466 22.7078L20.6987 28.3031C20.7493 28.2922 20.81 28.2813 20.8606 28.2813H28.964V22.6969H19.6466V22.7078ZM44.311 28.8692H41.7616C41.6099 28.8692 41.4885 28.7385 41.4885 28.5861V22.4248C41.4885 22.2615 41.6099 22.1308 41.7616 22.1308H47.8822C47.9834 22.1308 48.0744 22.1853 48.1149 22.2832C48.1655 22.3703 48.1554 22.4901 48.1048 22.5772L44.5336 28.7385C44.4931 28.8147 44.4021 28.8692 44.311 28.8692ZM42.0348 28.2922H44.1694L47.4067 22.7078H42.0348V28.2922ZM40.3352 28.8692H30.6737C30.522 28.8692 30.4006 28.7385 30.4006 28.5861V22.4248C30.4006 22.2615 30.522 22.1308 30.6737 22.1308H40.3352C40.4869 22.1308 40.6083 22.2615 40.6083 22.4248V28.5861C40.5982 28.7385 40.4768 28.8692 40.3352 28.8692ZM30.9368 28.2922H40.062V22.7078H30.9368V28.2922ZM48.7725 21.1947C48.7624 21.1947 48.7421 21.1947 48.732 21.1947C48.7219 21.1947 48.6713 21.1838 48.6612 21.1729H41.7717C41.62 21.1729 41.4986 21.0423 41.4986 20.879V16.0674C41.4986 15.9042 41.62 15.7735 41.7717 15.7735H51.5849C51.6861 15.7735 51.767 15.828 51.8176 15.9259C51.8682 16.0239 51.8581 16.1328 51.8075 16.2199L49.0052 21.0531C48.9445 21.1402 48.8635 21.1947 48.7725 21.1947ZM42.0348 20.5959H48.6308L51.0892 16.3614H42.0348V20.5959ZM40.3352 21.1729H30.6737C30.522 21.1729 30.4006 21.0423 30.4006 20.879V16.0674C30.4006 15.9042 30.522 15.7735 30.6737 15.7735H40.3352C40.4869 15.7735 40.6083 15.9042 40.6083 16.0674V20.879C40.5982 21.0423 40.4768 21.1729 40.3352 21.1729ZM30.9368 20.5959H40.062V16.3614H30.9368V20.5959ZM29.2372 21.1729H19.0295C18.8979 21.1729 18.7867 21.0749 18.7664 20.9443L17.866 16.1328C17.8458 16.0457 17.866 15.9586 17.9166 15.8933C17.9672 15.828 18.0481 15.7844 18.1291 15.7844H29.2372C29.3889 15.7844 29.5002 15.915 29.5002 16.0783V20.8899C29.5103 21.0423 29.3889 21.1729 29.2372 21.1729ZM19.252 20.5959H28.9741V16.3614H18.4528L19.252 20.5959Z" fill="#D18943"/>
<path d="M53.588 36.9246C53.244 36.7178 52.809 36.8593 52.6168 37.2403L46.8705 48.6487L43.4916 45.0128C43.2083 44.708 42.7632 44.708 42.4799 45.0128C42.1966 45.3176 42.1966 45.7966 42.4799 46.1014L46.5367 50.4666C46.6682 50.6081 46.8503 50.6952 47.0425 50.6952C47.0729 50.6952 47.1133 50.6952 47.1437 50.6843C47.3663 50.6516 47.5585 50.4992 47.6698 50.2924L53.8713 37.9697C54.0635 37.5996 53.932 37.1315 53.588 36.9246Z" fill="#D18943"/>
<path d="M47.0425 50.9782C46.7795 50.9782 46.5367 50.8694 46.3444 50.6625L42.2877 46.2973C42.1056 46.1014 42.0044 45.8292 42.0044 45.5462C42.0044 45.2632 42.1056 45.0019 42.2877 44.7951C42.6721 44.3814 43.2993 44.3814 43.6838 44.7951L46.8098 48.1588L52.3841 37.0879C52.6471 36.5763 53.2339 36.3804 53.7195 36.6634C53.9522 36.794 54.114 37.0226 54.195 37.2948C54.2658 37.5669 54.2456 37.8499 54.114 38.1003L47.9125 50.4122C47.7608 50.7061 47.4977 50.9129 47.1942 50.9565C47.1335 50.9782 47.0931 50.9782 47.0425 50.9782ZM42.9857 45.0781C42.8744 45.0781 42.753 45.1217 42.6721 45.2196C42.5001 45.4047 42.5001 45.7095 42.6721 45.8946L46.7289 50.2598C46.8098 50.3468 46.9211 50.4013 47.0425 50.4013C47.2448 50.3795 47.3662 50.2815 47.437 50.1509L53.6386 37.8391C53.6993 37.7302 53.7094 37.5996 53.679 37.4689C53.6487 37.3492 53.5677 37.2403 53.4666 37.1859C53.2541 37.0553 52.981 37.1424 52.8596 37.3818L47.1133 48.7902C47.0728 48.8664 47.002 48.9208 46.911 48.9426C46.83 48.9535 46.739 48.9208 46.6783 48.8664L43.2993 45.2305C43.2184 45.1217 43.1071 45.0781 42.9857 45.0781Z" fill="#D18943"/>
</svg>
