<svg width="52" height="63" viewBox="0 0 52 63" fill="none" xmlns="http://www.w3.org/2000/svg">
<path d="M0 49.7906C0 54.3204 0.968588 57.5538 2.9735 59.6772C5.56091 62.4189 9.57751 62.9926 14.3595 62.9926C16.0122 62.9926 17.7665 62.9255 19.575 62.851C21.6002 62.7691 23.6931 62.6871 25.8606 62.6871C27.5404 62.6871 29.1863 62.7243 30.7781 62.7542C38.3642 62.9181 44.914 63.0596 48.6258 59.0588C50.7052 56.8162 51.7145 53.4785 51.7145 48.8444C51.7145 37.7955 45.4762 23.1482 35.3907 18.7376C35.2756 18.6854 35.1469 18.6631 35.0182 18.6631H16.6895C16.5608 18.6631 16.4389 18.6929 16.317 18.7376C6.55659 23.0215 0 38.25 0 49.7906ZM16.8859 20.8833H34.8285C43.0514 24.6085 49.7096 37.1027 49.7096 48.8593C49.7096 52.8676 48.8968 55.6912 47.2237 57.5017C44.1148 60.8543 37.951 60.7202 30.8187 60.5712C29.2134 60.534 27.5607 60.4967 25.8606 60.4967C23.6593 60.4967 21.546 60.5787 19.5005 60.6606C12.9168 60.9214 7.23393 61.1449 4.36203 58.0977C2.7703 56.4139 1.99814 53.6945 1.99814 49.7906C2.00491 36.4917 9.66556 24.1763 16.8859 20.8833Z" fill="#D18943"/>
<path d="M17.902 16.6813H33.6093C33.887 16.6813 34.1512 16.5546 34.3409 16.3311C37.2602 12.8965 39.0077 5.89321 39.0077 1.10265C39.0077 0.491722 38.5606 0 38.0052 0H13.5061C12.9506 0 12.5036 0.491722 12.5036 1.10265C12.5036 5.89321 14.2511 12.8965 17.1704 16.3311C17.3601 16.5546 17.6242 16.6813 17.902 16.6813ZM36.9689 2.2053C36.7454 6.24338 35.3365 11.6225 33.1555 14.476H18.349C16.168 11.6225 14.7591 6.24338 14.5356 2.2053H36.9689Z" fill="#D18943"/>
<path d="M18.498 49.7682C20.0152 50.8038 22.2369 51.221 23.4967 51.3849V53.5977C23.4967 54.2086 23.9437 54.7003 24.4992 54.7003H27.5675C27.8316 54.7003 28.089 54.5811 28.2787 54.3725C28.4683 54.1639 28.5699 53.8808 28.5699 53.5902L28.5564 51.0348C30.9609 50.394 33.3655 48.1366 33.6635 44.6647C34.036 40.3138 31.4012 38.548 30.8661 38.2351C30.5478 38.0488 30.0736 37.8402 29.4708 37.5795C28.4142 37.1176 26.9647 36.4843 25.9148 35.7467C25.5152 35.4636 25.3661 35.0464 25.4339 34.7782C25.5152 34.4429 25.9283 34.3609 26.1722 34.3386C27.9739 34.197 30.7645 35.2103 30.7916 35.2177C31.0625 35.3146 31.3538 35.2848 31.5976 35.1283C31.8415 34.9719 32.0176 34.7111 32.0853 34.4131L32.8236 30.7848C32.9184 30.3303 32.7423 29.8684 32.3833 29.6151C31.4283 28.9371 29.6469 28.6018 28.5158 28.4528V26.4859C28.5158 25.875 28.0687 25.3833 27.5133 25.3833H24.445C23.8896 25.3833 23.4425 25.875 23.4425 26.4859V28.9967C19.8662 30.1142 18.1322 32.7815 18.5386 36.5811C18.9857 40.7608 24.0115 42.5414 25.0207 42.8618C27.1069 43.5174 27.0324 43.8974 26.924 44.4263C26.8089 44.9926 25.0613 45.3651 23.3748 44.9851C21.9456 44.6647 20.6722 43.9197 20.6587 43.9123C20.3945 43.7558 20.0829 43.7335 19.812 43.8601C19.5343 43.9793 19.3243 44.2326 19.2295 44.5455L18.0713 48.4942C17.929 48.971 18.1051 49.5 18.498 49.7682ZM20.7874 46.4007C21.3699 46.6614 22.142 46.9594 22.9684 47.1457C25.0613 47.6225 28.3667 47.4214 28.8747 44.9181C29.4776 41.9826 26.9376 41.178 25.5693 40.7533C23.937 40.2392 20.7738 38.6523 20.53 36.3353C20.2116 33.3849 21.5257 31.6788 24.655 30.9487C25.1155 30.8444 25.4474 30.3899 25.4474 29.8684V27.596H26.5108V29.4512C26.5108 30.0248 26.9105 30.5017 27.432 30.5464C28.3667 30.6283 29.7891 30.8593 30.6832 31.1796L30.3581 32.7815C29.2405 32.4537 27.4523 32.029 26.0299 32.1333C24.7362 32.2301 23.7676 33.0348 23.4899 34.2268C23.1987 35.471 23.7405 36.827 24.8378 37.5944C26.0435 38.4437 27.5946 39.1217 28.7325 39.6209C29.2337 39.8444 29.7079 40.0455 29.9314 40.1796C30.2633 40.3734 31.9227 41.4984 31.6721 44.4487C31.4418 47.1755 29.3353 48.822 27.4727 48.9934C26.9511 49.0381 26.5515 49.5224 26.5515 50.096L26.565 52.4876H25.5016V50.3717C25.5016 49.7831 25.0817 49.2988 24.5533 49.269C23.7812 49.2243 21.7289 48.9636 20.2455 48.2707L20.7874 46.4007Z" fill="#D18943"/>
</svg>
