<svg width="61" height="54" viewBox="0 0 61 54" fill="none" xmlns="http://www.w3.org/2000/svg">
<path d="M45.928 0L40.7316 5.57588C40.4699 5.5367 40.2083 5.51059 39.9466 5.491C38.0847 4.68139 34.7746 4.11335 30.8925 7.31916L30.8012 7.40404L29.5234 8.77515C24.7225 5.28207 20.9134 7.43668 19.8425 8.19406L15.0598 3.06216L0 19.2348L5.71362 25.3657C5.75621 28.1144 6.66893 30.9285 8.43351 33.7752C9.16369 34.9504 10.0156 36.0277 10.9344 37.0332C12.1087 38.3129 13.3074 39.5796 14.4879 40.8528C13.204 42.8637 13.7516 44.5287 15.0964 46.0238C16.4837 47.5778 17.7676 47.7606 19.6539 47.173C19.6721 47.1664 19.6904 47.173 19.6965 47.1926C21.0473 49.3668 22.2947 50.418 23.6394 50.5355C24.1992 51.1166 24.7529 51.7042 25.3127 52.2853C26.9739 54.009 29.5112 54.3942 31.5192 53.1602C32.3832 52.6313 32.5354 52.1873 32.9735 51.4365C36.3688 54.4921 38.6262 54.5444 41.2914 50.2613C41.3035 50.2482 41.3218 50.2351 41.334 50.2417C43.2202 50.8293 44.498 50.6465 45.8915 49.0925C47.3092 47.5125 47.8447 45.7431 46.2626 43.5754C46.2505 43.5624 45.8428 42.9878 45.861 42.9878C46.9867 43.027 47.8812 42.2565 48.3741 41.571C49.6884 39.7494 49.6032 37.8363 48.1976 35.9559C48.8122 35.29 49.4328 34.637 50.0474 33.9711C50.9723 32.9656 51.8181 31.8883 52.5482 30.713C54.3189 27.8663 55.2255 25.0523 55.2742 22.3035L60.9878 16.1727L45.928 0ZM11.8532 34.6827C10.119 32.7175 8.82294 30.5498 8.25097 28.0883C8.12319 27.5399 8.03192 26.9784 7.98324 26.3973C7.94065 25.9272 7.92848 25.444 7.94065 24.9478L2.14793 18.7321L14.6035 5.37348L18.5951 9.65659L18.8568 9.93734L18.8385 9.98304L20.7674 10.1528L20.8952 9.81981C21.6558 9.26484 24.8138 7.38445 29.0305 10.8318L34.6103 16.8452C34.8902 17.1455 35.0423 17.5503 35.0423 17.9812C35.0423 18.4122 34.8841 18.817 34.6042 19.1173L34.2391 19.509C33.655 20.1358 32.7057 20.1293 32.1277 19.5025L26.4201 13.3521L25.0328 14.3902L26.5784 16.3294L27.2477 17.0476C26.5905 17.7527 25.9394 18.4513 25.2823 19.1565C25.118 19.3328 25.0267 19.5221 24.9781 19.7114C24.9476 19.7506 24.9111 19.7833 24.8807 19.8224C21.0473 23.9423 17.1956 28.0492 13.3744 32.1821C12.6016 33.0178 12.0966 33.847 11.8532 34.6827ZM30.3448 51.3582C29.9067 51.8087 29.4504 52.0829 28.7871 52.0307C27.8744 51.9523 27.2416 51.208 26.8035 50.7444C26.5358 50.4571 26.268 50.1698 25.9942 49.8826C26.627 49.5169 27.2964 49.0142 28.0144 48.3678C28.4586 49.1252 28.6046 49.5626 29.4686 50.098C29.8581 50.3396 30.2657 50.5159 30.6856 50.6334C30.6247 50.9207 30.5091 51.1949 30.3448 51.3582ZM38.5654 50.5289C37.7135 51.6063 36.7339 51.7042 35.4804 50.4571C35.2857 50.2613 35.0971 50.0654 34.9023 49.8695C35.1762 49.6736 35.4378 49.4582 35.6812 49.2101C36.3992 48.4657 37.105 47.7149 37.817 46.9706C37.89 47.0555 37.9691 47.1338 38.0421 47.2121C39.2225 48.4853 39.3747 49.5039 38.5654 50.5289ZM44.5285 47.186C43.6644 48.4527 42.344 48.4788 41.1575 47.2121C40.5673 46.5854 39.9831 45.952 39.3929 45.3187C40.3604 44.3002 41.334 43.2947 42.3014 42.2696C42.8491 42.8572 43.3967 43.4383 43.9382 44.0259C44.9909 45.1685 45.1735 46.2393 44.5285 47.186ZM46.938 39.6906C46.4999 40.8724 45.1917 41.4273 44.1573 40.8136C44.0539 40.7548 43.9565 40.683 43.8652 40.6112C44.8023 39.6188 45.7272 38.6133 46.6521 37.6209C47.0537 38.1954 47.2605 38.8287 46.938 39.6906ZM53.0533 21.8856C53.0654 22.3753 53.0533 22.8585 53.0107 23.3351C52.962 23.9097 52.8707 24.4777 52.7429 25.0262C52.171 27.4942 50.8627 29.6749 49.1164 31.6467C46.7494 34.3171 44.2729 36.8765 41.839 39.4817C39.2895 42.2174 36.7521 44.9661 34.1843 47.6757C33.7462 48.1393 33.1134 48.8901 32.2007 48.962C31.5435 49.0207 31.0872 48.74 30.6491 48.2895C30.2536 47.8847 30.1258 46.8726 30.2779 46.2393C30.4422 45.5537 31.0142 44.927 31.507 44.385C32.6692 43.1053 33.8497 41.8583 35.024 40.5916C35.596 39.9779 36.168 39.3576 36.7278 38.7308C37.3302 38.0648 39.0765 36.6676 38.0969 35.6752C37.1963 34.7676 35.9002 36.5174 35.3587 37.1051C34.7867 37.7253 34.2148 38.3391 33.6306 38.9463C30.9351 41.7734 28.2699 44.6397 25.5074 47.3884C24.254 48.6355 23.2804 48.5376 22.4224 47.4603C21.6132 46.4417 21.7653 45.4166 22.9457 44.15C26.0003 40.8658 29.0609 37.5817 32.1216 34.2975C32.5536 33.834 32.9248 33.5336 32.9978 32.835C33.0526 32.3127 32.8761 31.8556 32.3772 31.7773C31.5375 31.6402 31.1724 31.9862 30.6308 32.5673C27.0286 36.426 23.4386 40.2978 19.8303 44.15C18.6499 45.4166 17.3234 45.3905 16.4593 44.1173C15.8144 43.1706 15.9908 42.0998 17.0435 40.9638C20.6944 37.0332 24.3513 33.1027 28.0204 29.1852C28.6168 28.5454 29.0853 27.8337 28.3551 27.0959C27.6554 26.3907 27.053 27.0175 26.5175 27.5921C23.7002 30.6216 20.883 33.6511 18.0596 36.6676C17.6824 37.0659 17.2869 37.4772 16.8305 37.7514C15.7961 38.3652 14.4879 37.8037 14.0498 36.6284C13.5995 35.4205 14.1776 34.6566 14.8956 33.8862C19.5748 28.8849 24.254 23.877 28.8906 18.8365L30.8073 20.8997C31.4584 21.6049 32.3163 21.9575 33.1803 21.9575C34.0322 21.9575 34.8902 21.6114 35.5412 20.9128L35.9124 20.5211C36.5452 19.8486 36.8921 18.9475 36.8921 17.9878C36.8921 17.0867 36.5817 16.2445 36.0219 15.585L31.7748 10.982L30.9411 10.081L32.0729 8.86003C33.8314 7.42362 35.3952 6.92088 36.6913 6.84906C39.0583 6.62054 41.1514 7.94595 41.1514 7.94595L42.411 6.60095L46.4026 2.31784L58.846 15.6699L53.0533 21.8856Z" fill="#D18943"/>
</svg>
