<?xml version="1.0" encoding="utf-8"?>
<!-- Generator: Adobe Illustrator 24.3.0, SVG Export Plug-In . SVG Version: 6.00 Build 0)  -->
<svg version="1.1" id="Слой_1" xmlns="http://www.w3.org/2000/svg" xmlns:xlink="http://www.w3.org/1999/xlink" x="0px" y="0px"
	 viewBox="0 0 841.89 205.94" style="enable-background:new 0 0 841.89 205.94;" xml:space="preserve">
<style type="text/css">
	.st0{fill:#060708;}
	.st1{fill:#E51B20;}
</style>
<g>
	<path class="st0" d="M58.17,36.94c3.12-2.33,6.11-4.42,9.62-5.69c6.53-2.35,13.04-2.05,19.43,0.32c5.3,1.96,8.57,5.95,10.15,11.33
		c0.72,2.46,1.08,4.98,1.08,7.55c-0.01,18.28,0.04,36.57-0.03,54.85c-0.03,7.84-3.32,14.03-10.14,18.1
		c-1.33,0.79-1.64,1.59-1.4,3.05c1.51,9.29,2.92,18.59,4.4,27.88c0.19,1.18,0.46,2.35,0.97,3.44c1.35,2.89,3.83,4.25,7,3.8
		c0.32-0.05,0.63-0.12,0.94-0.18c2.65-0.52,2.44-0.46,3.05,2.07c1.99,8.25-5.12,15.13-13.09,15.04c-2.64-0.03-5.26-0.33-7.73-1.36
		c-4.71-1.95-6.76-5.78-7.55-10.56c-2.04-12.27-4.14-24.52-6.14-36.8c-0.21-1.27-0.55-1.81-1.9-1.73c-1.83,0.1-3.68,0.11-5.51,0
		c-1.33-0.08-1.6,0.48-1.58,1.67c0.13,9.73-0.19,19.47,0.22,29.21c0.24,5.65,0.45,11.3,0.67,17.06c-2.23,0.86-4.57,0.76-6.83,0.98
		c-2.78,0.27-5.58,0.27-8.38,0.27c-2.45,0-3.44-1.04-3.58-3.5c-0.04-0.64-0.01-1.28-0.01-1.92c0-39.52,0-79.04-0.01-118.56
		c0-1.44,0.01-2.88-0.16-4.3c-0.51-4.24-2.4-6.13-6.64-6.41c-1.32-0.09-1.54-0.52-1.52-1.67c0.1-5.24,3.07-9.12,8.15-10.46
		c2.25-0.59,4.54-0.85,6.87-0.68c4.1,0.3,7.01,2.38,8.96,5.92C57.65,36,57.84,36.35,58.17,36.94z M80.6,78.5c0-8.15,0-16.29,0-24.44
		c0-0.88,0.01-1.77-0.11-2.63c-0.59-4.04-2.91-6.17-6.97-6.63c-4.55-0.51-8.22,1.31-11.65,4.02c-1.48,1.17-2.17,2.44-2.16,4.44
		c0.08,19.01,0.05,38.01,0.05,57.02c0,0.48,0.05,0.96-0.01,1.44c-0.13,1.1,0.42,1.34,1.41,1.32c3.44-0.07,6.88,0.04,10.31-0.14
		c5.9-0.31,9.14-3.83,9.15-9.73C80.6,94.96,80.6,86.73,80.6,78.5z"/>
	<path class="st0" d="M370.39,36.93c1.95-1.46,3.72-2.82,5.68-3.9c7.73-4.25,15.74-4.39,23.79-1.24c6.15,2.4,9.13,7.45,10.3,13.71
		c0.38,2.04,0.53,4.11,0.52,6.19c-0.02,17.57-0.02,35.15-0.01,52.72c0,4.31-0.87,8.39-3.12,12.13c-1.81,3.01-4.32,5.33-7.36,7.05
		c-1.03,0.58-1.4,1.11-1.19,2.41c1.57,9.52,3.01,19.07,4.5,28.6c0.09,0.55,0.23,1.09,0.38,1.63c1.26,4.38,4.04,6.07,8.5,5.18
		c2.65-0.53,2.57-0.52,3.04,2.11c1.72,9.7-6.25,15.19-13.42,14.99c-2.55-0.07-5.09-0.38-7.5-1.38c-4.33-1.8-6.53-5.25-7.31-9.67
		c-1.52-8.72-2.93-17.46-4.39-26.19c-0.64-3.85-1.32-7.7-1.9-11.57c-0.17-1.15-0.52-1.7-1.8-1.64c-1.91,0.1-3.84,0.07-5.76,0.01
		c-1.15-0.04-1.51,0.37-1.49,1.52c0.06,5.03,0.08,10.07,0.01,15.1c-0.13,9.66,0.46,19.3,0.85,28.95c0.11,2.9,0.54,2.5-2.39,2.9
		c-4.12,0.57-8.27,0.81-12.43,0.73c-2.82-0.06-3.74-0.92-3.91-3.67c-0.05-0.8-0.03-1.6-0.03-2.4c0-39.78,0-79.56,0-119.34
		c0-1.2-0.04-2.38-0.28-3.57c-0.78-3.81-2.39-5.33-6.25-5.78c-1.92-0.22-1.92-0.22-1.78-2.11c0.39-5.29,3.23-8.73,8.38-10.05
		c2.17-0.56,4.39-0.8,6.64-0.62c3.97,0.33,6.91,2.24,8.81,5.74C369.73,35.89,369.99,36.28,370.39,36.93z M371.89,81.63
		c0,9.57,0,19.15,0,28.72c0,0.56,0.02,1.12,0,1.68c-0.03,0.71,0.29,1.02,0.99,1.01c3.99-0.06,8.01,0.33,11.96-0.24
		c3.41-0.49,6.19-2.17,7.42-5.63c0.51-1.42,0.59-2.95,0.59-4.48c-0.02-16.03-0.02-32.07-0.01-48.1c0-1.2-0.09-2.39-0.3-3.57
		c-0.65-3.68-2.85-5.7-6.58-6.17c-5.01-0.64-8.97,1.5-12.63,4.57c-1.06,0.89-1.49,1.85-1.48,3.26
		C371.92,62.32,371.89,71.97,371.89,81.63z"/>
	<path class="st0" d="M591.78,102.37c0,17.49,0,34.97,0,52.46c0,2.98-0.4,5.88-1.47,8.67c-2.27,5.97-6.65,9.84-12.4,12.25
		c-6.1,2.56-12.5,3.06-19.03,2.55c-2.71-0.21-5.39-0.61-8.01-1.38c-10.17-2.97-15.68-10.22-15.72-20.8
		c-0.03-9.42-0.01-18.84-0.01-28.27c0-25.47,0-50.94,0-76.42c0-2.57,0.23-5.1,0.97-7.57c2.2-7.33,7.25-11.96,14.29-14.32
		c9.04-3.03,18.26-3.01,27.29,0.05c9.17,3.1,14.06,10.28,14.07,20.06C591.8,67.24,591.78,84.81,591.78,102.37z M573.86,102.84
		c0-16.68,0-33.37,0-50.05c0-0.72,0.02-1.44-0.02-2.15c-0.16-3.04-1.62-5.28-4.27-6.74c-2.79-1.54-5.8-1.74-8.84-1.21
		c-5.1,0.88-7.58,3.93-7.64,9.12c0,0.4,0,0.8,0,1.2c0,33.29,0,66.57,0,99.86c0,0.72-0.02,1.44,0.02,2.15
		c0.19,3.66,2.31,6.57,5.78,7.73c3.12,1.04,6.3,1,9.39-0.1c3.57-1.27,5.47-4.05,5.59-7.83c0.02-0.56,0-1.12,0-1.68
		C573.86,136.36,573.86,119.6,573.86,102.84z"/>
	<path class="st0" d="M606.48,103.26c0-16.77-0.01-33.54,0.01-50.31c0-3.04,0.18-6.07,1.06-9c2.18-7.32,7.25-11.85,14.24-14.4
		c6.45-2.35,13.14-2.41,19.86-1.7c3.84,0.4,7.53,1.41,10.95,3.26c6.23,3.37,9.67,8.63,10.44,15.63c0.17,1.5,0.23,3.02,0.23,4.54
		c0.01,34.42,0.01,68.84,0.01,103.25c0,5.78-1.44,11.06-5.43,15.42c-3.75,4.1-8.52,6.43-13.86,7.55
		c-6.97,1.47-13.98,1.44-20.89-0.37c-6.55-1.71-11.82-5.17-14.66-11.6c-1.61-3.66-1.93-7.56-1.94-11.48
		C606.46,137.12,606.48,120.19,606.48,103.26z M624.56,103.11c0,13.41,0,26.82,0,40.23c0,3.75-0.03,7.5,0.01,11.25
		c0.04,3.97,2.1,6.84,5.83,8.16c1.74,0.62,3.55,0.79,5.41,0.62c6.78-0.6,9.54-3.56,9.54-10.32c0-33.37,0-66.73,0-100.1
		c0-0.96,0-1.92-0.1-2.87c-0.2-1.98-1.04-3.67-2.52-5.02c-3.75-3.41-11.52-3.53-15.37-0.27c-2.2,1.86-2.82,4.29-2.81,7.06
		C624.58,68.95,624.56,86.03,624.56,103.11z"/>
	<path class="st0" d="M696.74,36.73c0.72-0.15,1.18-0.74,1.73-1.16c4.44-3.32,9.33-5.56,14.93-5.82c4.41-0.21,8.76,0.27,12.87,2.07
		c5.94,2.61,8.97,7.4,10.15,13.57c0.45,2.36,0.55,4.75,0.55,7.15c0,32.97-0.01,65.94,0.01,98.92c0,4.37-0.56,8.59-2.74,12.46
		c-3.26,5.77-8.41,9.01-14.6,10.82c-3.47,1.01-7.03,1.47-10.64,1.47c-8.95,0.01-17.9,0-26.85,0.01c-2.17,0-1.87-0.04-1.87-2.01
		c0-13.73,0-27.46,0-41.19c0-26.9,0-53.81,0-80.71c0-1.35,0-2.7-0.29-4.05c-0.83-3.8-2.47-5.33-6.3-5.75
		c-1.84-0.2-1.76-0.2-1.69-2.07c0.18-4.93,3.18-9.62,10.19-10.43c1.73-0.2,3.45-0.43,5.24-0.23c3.92,0.43,6.68,2.37,8.48,5.81
		C696.12,35.99,696.2,36.51,696.74,36.73z M698.12,105.75c0,17.57,0,35.14,0,52.71c0,0.56,0.03,1.12,0,1.68
		c-0.05,0.81,0.3,1.16,1.12,1.14c1.36-0.03,2.72,0.02,4.08-0.01c2.79-0.06,5.6,0.24,8.36-0.38c2.95-0.67,5.35-2.05,6.63-4.94
		c0.66-1.49,0.75-3.07,0.75-4.68c-0.01-32.43-0.01-64.85-0.01-97.28c0-0.56,0.03-1.12-0.01-1.68c-0.33-4.62-2.82-7.08-7.41-7.51
		c-4.66-0.43-8.31,1.61-11.77,4.39c-1.31,1.05-1.8,2.18-1.79,3.85C698.14,70.61,698.12,88.18,698.12,105.75z"/>
	<path class="st0" d="M337.27,102.6c0,16.69,0,33.38,0,50.07c0,2.64-0.09,5.27-0.68,7.85c-1.69,7.45-6.4,12.32-13.28,15.23
		c-6.02,2.55-12.35,3.03-18.79,2.57c-3.92-0.28-7.75-0.96-11.39-2.53c-7.7-3.32-11.78-9.21-12.48-17.51
		c-0.06-0.71-0.07-1.44-0.07-2.15c0-35.14-0.01-70.27,0-105.41c0-8.84,3.87-15.46,11.69-19.68c2.47-1.33,5.12-2.25,7.88-2.74
		c7.49-1.32,14.95-1.36,22.24,1.06c9.57,3.17,14.69,9.99,14.76,20.04c0.12,17.73,0.03,35.45,0.03,53.18
		C337.22,102.6,337.24,102.6,337.27,102.6z M319.27,102.84c0-16.68,0-33.37,0-50.05c0-0.8,0.02-1.6-0.05-2.39
		c-0.28-3.24-1.99-5.5-4.9-6.83c-2.7-1.24-5.56-1.41-8.43-0.83c-4.96,1-7.38,3.99-7.46,9.05c-0.01,0.4,0,0.8,0,1.2
		c0,33.29,0,66.57,0,99.86c0,0.72-0.02,1.44,0.03,2.15c0.28,3.81,2.24,6.43,5.82,7.71c3.11,1.11,6.31,1.05,9.38-0.09
		c3.45-1.28,5.43-3.82,5.62-7.58c0.03-0.64,0.01-1.28,0.01-1.92C319.27,136.37,319.27,119.61,319.27,102.84z"/>
	<path class="st0" d="M148,144.36c0-4.63,0.07-9.26-0.03-13.89c-0.06-2.77,1.18-4.56,3.62-5.61c4.48-1.92,9.13-2.05,13.87-1.28
		c1.15,0.19,1.09,0.94,0.98,1.77c-0.64,4.84-0.52,9.72-0.52,14.58c-0.01,4.55-0.01,9.1,0,13.65c0.01,5.03,2.31,8.08,7.18,9.36
		c3.16,0.83,6.33,0.77,9.35-0.65c3.22-1.52,5.15-4,5.16-7.67c0.01-9.1,0.1-18.2-0.08-27.3c-0.09-4.65-2.18-8.39-6.22-10.98
		c-7.46-4.78-14.77-9.8-22.32-14.42c-7.36-4.5-10.5-11.06-10.51-19.4c-0.02-10.22,0.16-20.44-0.05-30.66
		c-0.26-13.03,7.61-20.46,17.37-22.99c8.7-2.26,17.39-2.04,25.89,1.13c3.1,1.16,5.81,2.97,8.18,5.3c3.41,3.37,5.18,7.46,5.21,12.22
		c0.07,9.42,0,18.84,0.04,28.27c0.01,2.35-1.01,4.03-3.05,5c-4.72,2.25-9.69,2.39-14.76,1.48c-0.81-0.15-0.72-0.72-0.68-1.27
		c0.14-2.15,0.48-4.28,0.48-6.44c0-7.5,0.07-15.01,0.06-22.51c0-5.25-2.36-8.16-7.49-9.26c-2.7-0.58-5.4-0.48-8,0.58
		c-3.28,1.33-5.22,3.74-5.24,7.29c-0.07,9.58-0.08,19.16,0.04,28.74c0.05,4.18,1.96,7.41,5.61,9.69
		c7.57,4.74,14.99,9.74,22.61,14.42c7.35,4.51,10.83,11.03,10.88,19.49c0.05,10.62,0.06,21.24,0,31.86
		c-0.06,10-4.76,17.18-14.01,20.84c-10.88,4.3-21.89,3.98-32.52-1.07c-5.24-2.49-9.05-6.5-10.53-12.34
		c-0.4-1.56-0.52-3.14-0.51-4.75C148,153.15,148,148.76,148,144.36z"/>
	<path class="st1" d="M807.98,61.14c0,4.71-0.08,9.43,0.03,14.14c0.07,2.87-1.2,4.73-3.74,5.78c-4.49,1.86-9.14,2.06-13.88,1.19
		c-1.06-0.19-0.89-0.86-0.84-1.61c0.2-2.7,0.47-5.41,0.5-8.12c0.07-6.79,0.03-13.58,0.02-20.37c-0.01-5.36-2.58-8.54-7.85-9.5
		c-2.37-0.44-4.8-0.39-7.1,0.42c-3.17,1.11-5.3,3.21-5.75,6.68c-0.12,0.95-0.23,1.9-0.23,2.86c-0.02,7.99-0.03,15.97,0.01,23.96
		c0.01,1.59,0.15,3.2,0.43,4.76c0.57,3.22,2.23,5.72,5.05,7.51c7.96,5.04,15.87,10.15,23.81,15.22c4.64,2.96,7.8,7.02,9.17,12.39
		c0.51,2.01,0.81,4.06,0.8,6.15c-0.02,10.62-0.11,21.25,0.02,31.87c0.14,11.1-6.13,18.48-15.44,21.81c-5.58,2-11.34,2.44-17.22,1.99
		c-5.24-0.4-10.27-1.5-14.84-4.18c-6.67-3.9-10.25-9.54-10.13-17.47c0.14-8.62,0.09-17.25,0-25.88c-0.03-2.81,0.85-4.85,4.26-6.17
		c4.29-1.66,8.72-1.8,13.21-1.05c0.85,0.14,1.21,0.5,1.11,1.45c-0.99,9.48-0.23,18.99-0.57,28.48c-0.21,5.76,3.42,8.59,7.57,9.58
		c2.67,0.64,5.4,0.55,8.04-0.36c3.86-1.32,6.13-4.39,6.16-8.51c0.05-8.47,0.08-16.93-0.01-25.4c-0.06-5.63-2.24-10.04-7.3-13.12
		c-7.36-4.48-14.4-9.49-21.73-14.03c-6.92-4.28-9.91-10.56-10.18-18.4c-0.1-2.87-0.02-5.75-0.02-8.63c0-7.91,0-15.81,0-23.72
		c0-3.15,0.53-6.2,1.71-9.11c2.29-5.66,6.48-9.57,12.05-11.67c10.69-4.02,21.44-3.87,31.88,0.98c4.46,2.07,7.87,5.43,9.78,10.1
		c0.98,2.4,1.3,4.92,1.29,7.49C807.97,52.83,807.98,56.99,807.98,61.14z"/>
	<path class="st0" d="M470.35,42.43c-0.73-8.08,4.76-11.87,9.57-12.46c1.67-0.21,3.33-0.34,5.02-0.34
		c8.23,0.03,16.47-0.01,24.7,0.02c3.85,0.02,7.65-0.51,11.46-0.91c1.94-0.2,1.95-0.24,2.41,1.59c0.89,3.49,1.42,7.03,1.34,10.65
		c-0.07,2.82-0.92,3.71-3.76,3.72c-7.51,0.02-15.03,0.01-22.54,0.01c-2.25,0-2.08-0.2-2.08,2.04c0,16.29,0,32.59,0,48.88
		c0,0.32,0.02,0.64,0,0.96c-0.06,0.78,0.21,1.16,1.07,1.14c7.1-0.18,14.23,0.51,21.27-0.9c0.99-0.2,1.22,0.15,1.44,0.98
		c0.98,3.64,1.48,7.35,1.47,11.12c-0.01,2.93-0.98,3.83-3.95,3.85c-6.56,0.03-13.11,0.03-19.67-0.01c-1.16-0.01-1.67,0.19-1.66,1.54
		c0.08,14.53,0.08,29.07,0.11,43.6c0,0.8,0.06,1.58,0.25,2.37c0.76,3.11,2.15,4.44,5.35,4.97c0.94,0.16,1.88,0.27,2.8,0.4
		c0.33,6.39-2.79,10.75-8.81,12.2c-2.64,0.64-5.32,0.87-8.07,0.43c-4.13-0.66-6.78-3-8.23-6.8c-1.1-2.88-1.29-5.91-1.29-8.95
		c-0.01-36.58,0-73.16-0.01-109.74c0-1.27-0.05-2.56-0.19-3.82c-0.47-4.21-2.42-6.1-6.63-6.46
		C471.25,42.46,470.79,42.45,470.35,42.43z"/>
	<path class="st0" d="M251.79,110.58c0,13.74,0,27.47,0,41.21c0,7.66,0.56,15.31,0.87,22.96c0.05,1.23-0.27,1.5-1.32,1.64
		c-4.76,0.66-9.54,0.99-14.34,0.84c-1.93-0.06-2.86-1.03-3.07-2.99c-0.09-0.87-0.06-1.75-0.06-2.63c0-41.29,0-82.58-0.01-123.87
		c0-3.53,0.5-3.03-3.03-3.03c-5.03,0-10.08-0.17-15.03,0.95c-0.79,0.18-1.03-0.22-1.17-0.79c-0.97-3.88-1.64-7.82-1.53-11.83
		c0.06-2.22,1.06-3.17,3.24-3.38c0.63-0.06,1.28-0.02,1.92-0.02c13.75,0,27.5-0.01,41.25,0c3.36,0,6.72-0.07,10.01-0.81
		c0.91-0.21,1.29-0.05,1.52,0.88c0.9,3.74,1.56,7.5,1.46,11.36c-0.07,2.68-0.97,3.6-3.63,3.62c-4.8,0.03-9.59,0.01-14.39,0.01
		c-0.48,0-0.96,0.03-1.44-0.01c-0.89-0.08-1.36,0.22-1.26,1.2c0.06,0.55,0.01,1.12,0.01,1.68
		C251.79,68.57,251.79,89.58,251.79,110.58z"/>
	<path class="st0" d="M133.3,103.81c0,16.37,0.01,32.75,0,49.12c-0.01,7.11,0.51,14.19,0.77,21.29c0.07,1.93,0.13,1.99-1.81,2.24
		c-4.52,0.6-9.06,0.92-13.63,0.79c-2.02-0.06-2.89-0.81-3.26-2.81c-0.17-0.93-0.15-1.9-0.15-2.86c-0.01-39.38-0.01-78.76,0-118.14
		c0-7.26-0.48-14.51-0.79-21.76c-0.08-1.91-0.06-1.97,1.83-2.21c4.28-0.54,8.58-0.94,12.9-0.88c2.93,0.04,3.99,1.08,4.13,4.05
		c0.03,0.64,0.01,1.28,0.01,1.92C133.3,57.64,133.3,80.73,133.3,103.81z"/>
</g>
</svg>
