<?xml version="1.0" encoding="utf-8"?>
<!-- Generator: Adobe Illustrator 24.3.0, SVG Export Plug-In . SVG Version: 6.00 Build 0)  -->
<svg version="1.1" id="Слой_1" xmlns="http://www.w3.org/2000/svg" xmlns:xlink="http://www.w3.org/1999/xlink" x="0px" y="0px"
	 viewBox="0 0 799.7 875.98" style="enable-background:new 0 0 799.7 875.98;" xml:space="preserve">
<style type="text/css">
	.st0{fill:#FFFFFF;}
</style>
<g>
	<path class="st0" d="M190.47,875.89c0-7.09,0-13.55,0-20.01c0-43.51-0.11-87.02,0.12-130.53c0.03-5.71-1.69-9.1-7.02-10.99
		c-9.57-3.39-18.98-7.24-28.61-10.43c-44.92-14.89-78.01-44.34-102.99-83.66c-21.14-33.27-32.4-70.3-40.37-108.49
		C0.07,456.55-2.09,400.73,1.74,344.62c2.93-42.92,8.59-85.54,17.21-127.68c12.79-62.57,46.29-111.66,98.7-147.89
		c36.68-25.36,77.58-41.06,120.67-51.33C300.48,2.9,363.63-2.24,427.35,0.87c56.32,2.75,112.15,9.64,166.71,24.64
		c36.61,10.07,70.94,25.13,101.55,47.87c42.37,31.47,68.49,73.77,82.08,124.34c20.24,75.31,25.07,151.94,20.3,229.49
		c-2.22,36-6.03,71.72-15.32,106.65c-8.59,32.3-19.79,63.66-37.28,92.33c-22.26,36.48-54.22,61.89-92.93,79.13
		c-31.58,14.06-64.82,22.15-99,26.6c-53.97,7.02-108.31,8-162.6,9.93c-10.16,0.36-20.33,0.5-30.48,1.03
		c-1.91,0.1-4.18,1.16-5.54,2.52c-42.19,42.19-84.3,84.45-126.36,126.77c-2.66,2.67-5.37,3.88-9.18,3.78
		C210.01,875.72,200.68,875.89,190.47,875.89z M228.52,816.65c0.62,0.32,1.25,0.63,1.87,0.95c31.61-32.23,63.42-64.26,94.71-96.8
		c9.33-9.7,19.94-15.32,33.2-16.09c7.32-0.43,14.66-0.55,21.99-0.78c54.62-1.73,109.29-2.75,163.64-9.28
		c29.2-3.51,57.75-9.83,85.13-20.83c37.3-14.99,67.99-37.89,87.54-73.86c10.13-18.63,17.78-38.34,24.2-58.54
		c13.77-43.28,17.99-87.97,19.95-133.02c3.01-69.19-2.35-137.5-20.99-204.46c-12.46-44.76-37.01-80.76-76.22-106.42
		c-22.36-14.63-46.45-25.43-71.96-32.93c-55.8-16.4-113.14-23.19-171.01-25.75c-48.26-2.14-96.25,1.2-143.83,9.81
		c-42.88,7.76-84.13,20.2-122.21,41.97c-49.99,28.58-83.61,69.86-96.4,126.46c-9.33,41.3-14.6,83.3-17.79,125.54
		c-4.48,59.53-1.88,118.53,12.21,176.77c7.25,29.97,16.96,58.96,34.29,84.75c19.34,28.8,43.96,51.09,77.79,62.04
		c12.48,4.04,24.63,9.24,36.67,14.51c18.64,8.15,27.43,22.88,27.34,43.12c-0.09,19-0.08,38.01-0.1,57.01
		C228.51,792.77,228.52,804.71,228.52,816.65z"/>
	<path class="st0" d="M230.22,171.5c10.42,0.06,19.05,4.49,26.39,11.44c27.52,26.07,49.27,56.39,65.57,90.58
		c6.59,13.83,4.34,26.29-6.67,36.95c-5.37,5.2-11.49,9.62-17.18,14.5c-8.79,7.54-16.01,16.14-17.3,28.25
		c-1.04,9.77,1.97,18.8,5.81,27.55c22.96,52.42,61.75,88.88,113.51,112.11c6.17,2.77,12.66,5.61,19.26,6.48
		c14.24,1.88,24.42-5.66,32.49-16.63c2.56-3.48,4.84-7.22,7.72-10.42c13.59-15.09,30.85-19.16,49.91-12.27
		c12.75,4.6,23.39,12.63,34.1,20.56c15.4,11.39,30.82,22.77,46.06,34.38c9.61,7.32,18.19,16.01,18.91,28.72
		c0.41,7.2-0.94,15.1-3.7,21.77c-12.71,30.65-36.04,50.26-67.06,60.74c-14.21,4.81-28.38,2.1-41.91-3.64
		c-62.83-26.67-120.97-61.04-172.67-105.85c-58.39-50.61-105.3-110.31-139.36-179.67c-11.05-22.51-19.88-46.18-28.64-69.72
		c-5.82-15.64-3.3-31.54,3.14-46.76C169.58,194.57,203.36,171.46,230.22,171.5z"/>
	<path class="st0" d="M629.15,339.21c-2.09,15.13-3.72,30.35-6.42,45.37c-2.09,11.65-11.33,17.26-22.49,14.99
		c-10.61-2.15-16.85-11.1-14.62-22.41c3.59-18.27,5.16-36.56,3.16-55.13c-4.44-41.25-21.45-76.47-51.69-104.73
		c-38.27-35.76-84.05-49.95-135.99-44.49c-5.78,0.61-11.46,2.04-17.21,2.99c-11.1,1.83-20.02-4.22-22.2-14.98
		c-2.2-10.87,3.52-19.61,14.71-22.33c19.6-4.78,39.54-6.05,59.55-4.66c40.75,2.83,77.75,16.4,110.12,41.39
		c47.04,36.31,74.2,84.12,80.7,143.37c0.74,6.78,0.95,13.61,1.41,20.42C628.5,339.08,628.83,339.14,629.15,339.21z"/>
	<path class="st0" d="M571.79,341.55c-0.92,7.78-1.57,16.6-3.1,25.26c-1.85,10.51-10.92,16.43-21.37,14.7
		c-10.66-1.77-17.38-9.89-15.9-20.51c2.86-20.48,1.81-40.45-5.35-60.02c-17.34-47.37-66.25-77.49-116.53-71.55
		c-2.64,0.31-5.27,0.73-7.91,1.07c-10.97,1.39-19.68-5.22-21.34-16.2c-1.68-11.06,4.6-19.72,15.69-21.62
		c82.03-14.09,159.67,41.12,173.39,123.47C570.7,324.17,570.95,332.37,571.79,341.55z"/>
	<path class="st0" d="M514.35,339.4c-0.32,2.91-0.26,6.66-1.23,10.13c-2.34,8.38-10.23,13.11-19.86,12.42
		c-9.03-0.64-15.42-6.28-16.82-14.97c-1.19-7.37-1.34-15.05-3.52-22.1c-7.29-23.6-28.07-38.32-54.03-39.17
		c-14.04-0.46-22.41-11.77-18.45-24.94c2.48-8.26,8.87-12.93,17.94-13.13c44.96-1,86.76,33.62,94.24,78.09
		C513.34,330,513.72,334.32,514.35,339.4z"/>
</g>
</svg>
